<svg xmlns="http://www.w3.org/2000/svg" viewBox="0 0 300 320" width="300" height="320">
  <!-- Background circle -->
  <ellipse cx="150" cy="145" rx="135" ry="130" fill="#F0EEF0"/>

  <!-- Rose flower outline -->
  <!-- Center petal -->
  <path d="M150 45 C145 55 138 68 140 80 C142 92 150 98 150 98 C150 98 158 92 160 80 C162 68 155 55 150 45Z" fill="white" stroke="#1a1a1a" stroke-width="2.2"/>
  <!-- Left petal group -->
  <path d="M130 52 C118 58 108 70 110 83 C112 94 124 98 134 95 C140 80 145 65 150 55 C142 52 136 50 130 52Z" fill="white" stroke="#1a1a1a" stroke-width="2.2"/>
  <path d="M112 65 C100 68 90 80 93 93 C96 104 110 107 120 102 C126 89 134 75 140 63 C130 62 120 62 112 65Z" fill="white" stroke="#1a1a1a" stroke-width="2.2"/>
  <!-- Right petal group -->
  <path d="M170 52 C182 58 192 70 190 83 C188 94 176 98 166 95 C160 80 155 65 150 55 C158 52 164 50 170 52Z" fill="white" stroke="#1a1a1a" stroke-width="2.2"/>
  <path d="M188 65 C200 68 210 80 207 93 C204 104 190 107 180 102 C174 89 166 75 160 63 C170 62 180 62 188 65Z" fill="white" stroke="#1a1a1a" stroke-width="2.2"/>
  <!-- Bottom petals -->
  <path d="M135 95 C128 105 128 118 133 126 C138 134 148 136 153 130 C155 118 153 103 150 95 C145 94 140 94 135 95Z" fill="white" stroke="#1a1a1a" stroke-width="2.2"/>
  <path d="M165 95 C172 105 172 118 167 126 C162 134 152 136 147 130 C145 118 147 103 150 95 C155 94 160 94 165 95Z" fill="white" stroke="#1a1a1a" stroke-width="2.2"/>
  <!-- Stem -->
  <line x1="150" y1="130" x2="150" y2="155" stroke="#1a1a1a" stroke-width="2.5" stroke-linecap="round"/>
  <!-- Leaf -->
  <path d="M150 148 C158 140 168 138 172 142 C168 150 158 154 150 148Z" fill="white" stroke="#1a1a1a" stroke-width="2"/>
  <!-- Speed lines left -->
  <line x1="105" y1="82" x2="90" y2="82" stroke="#1a1a1a" stroke-width="2.2" stroke-linecap="round"/>
  <line x1="102" y1="90" x2="85" y2="90" stroke="#1a1a1a" stroke-width="2.2" stroke-linecap="round"/>
  <line x1="105" y1="98" x2="88" y2="98" stroke="#1a1a1a" stroke-width="2.2" stroke-linecap="round"/>

  <!-- Text: R -->
  <text x="28" y="215" font-family="'Arial Black', 'Helvetica Neue', Arial, sans-serif" font-weight="900" font-size="68" fill="#1a1a1a" letter-spacing="2">R</text>

  <!-- Pink drop replacing O -->
  <path d="M113 168 C113 168 100 185 100 196 C100 208 106 215 113 215 C120 215 126 208 126 196 C126 185 113 168 113 168Z" fill="#D63384"/>

  <!-- Text: SE -->
  <text x="128" y="215" font-family="'Arial Black', 'Helvetica Neue', Arial, sans-serif" font-weight="900" font-size="68" fill="#1a1a1a" letter-spacing="2">SE</text>

  <!-- Text: DE KAIROUAN -->
  <text x="150" y="245" font-family="'Arial Black', 'Helvetica Neue', Arial, sans-serif" font-weight="900" font-size="22" fill="#1a1a1a" text-anchor="middle" letter-spacing="6">DE KAIROUAN</text>

  <!-- Underline -->
  <line x1="112" y1="258" x2="188" y2="258" stroke="#1a1a1a" stroke-width="2.5" stroke-linecap="round"/>
</svg>
